# xmcd
#
# Track frame offsets: 
#        150
#        18644
#        43059
#        74134
#        95744
#        160605
#
# Disc length: 3076 seconds
#
# Revision: 0
# Processed by: cddbd v1.5.2PL0 Copyright (c) Steve Scherf et al.
# Submitted via: ExactAudioCopy v1.3
#
DISCID=510c0206
DTITLE=Ben Poole - Live ´19 CD2
DYEAR=2019
DGENRE=Blues
TTITLE0=Lying To Me
TTITLE1=I Think I Love You Too Much
TTITLE2=Found Out The Hard Way
TTITLE3=Stay At Mine
TTITLE4=Anytime You Need Me
TTITLE5=Time Might Never Come
EXTD=
EXTT0=
EXTT1=
EXTT2=
EXTT3=
EXTT4=
EXTT5=
PLAYORDER=
